<?xml version="1.0" ?><!-- Uploaded to: SVG Repo, www.svgrepo.com, Generator: SVG Repo Mixer Tools -->
<svg fill="#7171a1d9" width="800px" height="800px" viewBox="0 0 100 100" data-name="Layer 1" id="Layer_1" xmlns="http://www.w3.org/2000/svg"><title/><path d="M67.16,62.54a11.6,11.6,0,0,0,6.52,22.21,1.82,1.82,0,0,0-.78-3.56,8.07,8.07,0,0,1-1.71.19,8,8,0,0,1-1.43-15.79,1.82,1.82,0,0,0,1.37-2.46,8,8,0,1,1,15.26-1.71,1.81,1.81,0,0,0,1,1.91,8,8,0,0,1-.7,14.61A1.82,1.82,0,1,0,88,81.36a11.68,11.68,0,0,0,7.55-10.88,11.52,11.52,0,0,0-5.39-9.79c0-.16,0-.32,0-.48a11.6,11.6,0,1,0-23.2,0A12.11,12.11,0,0,0,67.16,62.54Z"/><path d="M24.51,71.36a19.84,19.84,0,0,0,8-1.67,1.82,1.82,0,0,0-1.46-3.33,16.38,16.38,0,1,1-9.5-31.12,1.82,1.82,0,0,0,1.37-2.46,16.38,16.38,0,1,1,31.61-6,16.69,16.69,0,0,1-.21,2.48,1.83,1.83,0,0,0,1,1.91,16.37,16.37,0,0,1-7.16,31.1c-.36,0-.71,0-1.06,0a1.82,1.82,0,1,0-.24,3.63c.43,0,.86,0,1.3,0a20,20,0,0,0,20-20A19.84,19.84,0,0,0,58.1,28.51q.09-.92.09-1.74a20,20,0,1,0-39.31,5.36,20,20,0,0,0,5.63,39.23Z"/><path d="M51.78,43.51a1.82,1.82,0,1,0-3.56-.72c-1.09,5.41-5.12,9.09-7.71,11A54.64,54.64,0,0,0,33.35,34a1.82,1.82,0,1,0-3.11,1.89C45,60.28,33,90.39,32.84,90.7a1.82,1.82,0,0,0,1,2.37,1.94,1.94,0,0,0,.7.14,1.83,1.83,0,0,0,1.68-1.13A79.23,79.23,0,0,0,41,57.79C43.67,56.17,50.19,51.47,51.78,43.51Z"/><path d="M89.12,68.89a1.82,1.82,0,1,0-3.6-.51,8.13,8.13,0,0,1-4.25,5.92A63.71,63.71,0,0,0,80,63.56a1.82,1.82,0,0,0-3.56.75,69.54,69.54,0,0,1-.11,26.79,1.83,1.83,0,0,0,1.45,2.13l.34,0a1.83,1.83,0,0,0,1.79-1.48A79.61,79.61,0,0,0,81.31,78.3C83.25,77.54,88.25,75,89.12,68.89Z"/></svg>