<?xml version="1.0" encoding="iso-8859-1"?>
<!-- Uploaded to: SVG Repo, www.svgrepo.com, Generator: SVG Repo Mixer Tools -->
<!DOCTYPE svg PUBLIC "-//W3C//DTD SVG 1.1//EN" "http://www.w3.org/Graphics/SVG/1.1/DTD/svg11.dtd">
<svg fill="#7171a1d9" height="800px" width="800px" version="1.1" id="Capa_1" xmlns="http://www.w3.org/2000/svg" xmlns:xlink="http://www.w3.org/1999/xlink"
	 viewBox="0 0 462.287 462.287" xml:space="preserve">
<g>
	<path d="M405.783,174.64C405.783,78.343,327.44,0,231.144,0S56.504,78.343,56.504,174.64c0,31.866,8.597,62.834,24.914,89.941
		c-5.013,7.583-7.635,15.84-7.635,24.179c0,35.31,45.155,62.97,102.801,62.97c8.495,0,16.835-0.626,24.921-1.838v74.629
		c0,11.451-9.315,20.766-20.767,20.766h-62.534c-4.694,0-8.5,3.806-8.5,8.5s3.806,8.5,8.5,8.5h214.732c4.694,0,8.5-3.806,8.5-8.5
		s-3.806-8.5-8.5-8.5h-51.394c-11.45,0-20.766-9.315-20.766-20.766v-34.932l22.639-9.225c4.348-1.771,6.436-6.731,4.665-11.079
		c-1.771-4.347-6.733-6.433-11.079-4.664l-16.225,6.611v-21.339c8.084,1.211,16.423,1.837,24.916,1.837
		c57.645,0,102.8-27.66,102.8-62.97c0-8.349-2.621-16.606-7.632-24.182C397.185,237.463,405.783,206.498,405.783,174.64z
		 M364.068,270.472c4.927,5.856,7.425,12.01,7.425,18.289c0,24.918-39.291,45.97-85.8,45.97c-8.541,0-16.89-0.693-24.916-2.046
		V282.26l41.514-23.571c4.082-2.318,5.513-7.506,3.194-11.588c-2.318-4.083-7.506-5.514-11.589-3.195L248.08,269.92
		c-2.659,1.51-4.303,4.333-4.303,7.392v147.209c0,7.667,2.303,14.803,6.244,20.766h-37.761c3.941-5.963,6.244-13.099,6.244-20.766
		V257.055c0-3.485-2.127-6.617-5.366-7.901l-61.492-24.388c-4.368-1.732-9.305,0.404-11.035,4.768
		c-1.73,4.364,0.404,9.304,4.768,11.035l56.126,22.26v33.406l-18.775-7.98c-4.318-1.835-9.311,0.177-11.147,4.498
		s0.177,9.312,4.497,11.148l25.426,10.807v17.978c-8.028,1.353-16.379,2.046-24.921,2.046c-46.509,0-85.801-21.052-85.801-45.97
		c0-6.269,2.5-12.423,7.43-18.294c2.403-2.862,2.655-6.96,0.619-10.095c-16.569-25.517-25.328-55.162-25.328-85.73
		C73.504,87.717,144.221,17,231.144,17s157.64,70.717,157.64,157.64c0,30.559-8.762,60.204-25.339,85.73
		C361.407,263.508,361.66,267.609,364.068,270.472z"/>
	<path d="M139.437,110.449c-15.439,0-28,12.561-28,28s12.561,28,28,28s28-12.561,28-28S154.876,110.449,139.437,110.449z
		 M139.437,149.449c-6.065,0-11-4.935-11-11s4.935-11,11-11s11,4.935,11,11S145.502,149.449,139.437,149.449z"/>
	<path d="M326.937,164.449c-15.163,0-27.5,12.336-27.5,27.5s12.337,27.5,27.5,27.5s27.5-12.336,27.5-27.5
		S342.1,164.449,326.937,164.449z M326.937,202.449c-5.79,0-10.5-4.71-10.5-10.5s4.71-10.5,10.5-10.5s10.5,4.71,10.5,10.5
		S332.727,202.449,326.937,202.449z"/>
	<path d="M269.931,80.441c-15.163,0-27.5,12.336-27.5,27.5s12.337,27.5,27.5,27.5s27.5-12.336,27.5-27.5
		S285.094,80.441,269.931,80.441z M269.931,118.441c-5.79,0-10.5-4.71-10.5-10.5s4.71-10.5,10.5-10.5s10.5,4.71,10.5,10.5
		S275.721,118.441,269.931,118.441z"/>
</g>
</svg>