# Blender 3.4.0
# www.blender.org
mtllib bush-clear.mtl
o bush
v -0.024031 1.059167 -1.023643
v -0.056470 0.550375 -1.647191
v 0.053239 -0.257801 -1.201703
v 0.439785 1.097087 -1.000087
v 1.020071 0.555103 -1.339066
v 1.450354 -0.437346 -1.431321
v -0.273313 -0.501743 0.383841
v -0.065526 1.752270 0.074259
v 0.976904 0.714146 -0.808612
v 1.320836 0.349009 -0.189713
v 0.999406 -0.357617 -0.154740
v 0.365355 -0.463540 0.029052
v 0.658757 0.790520 0.535007
v 1.239868 0.425035 0.589164
v 0.757710 -0.108928 0.935952
v 0.050512 -0.415997 0.498214
v -0.021408 1.084794 0.710127
v 0.464665 0.769368 1.209549
v 0.230170 0.002725 1.347958
v 0.005925 -0.533045 1.147044
v -0.395567 0.722423 0.578566
v -0.526934 0.620776 0.815377
v -0.241614 -0.074629 1.423687
v -0.403701 -0.476565 0.844925
v -0.365878 -0.486479 0.589415
v -0.573552 0.752076 -0.101555
v -0.707408 0.440157 0.000113
v -1.093822 -0.114907 0.000911
v -0.589757 -0.416025 0.385316
v -0.530988 0.768164 -0.800246
v -0.624617 0.627088 -0.906158
v -0.727599 -0.197225 -0.910177
v -0.591629 -0.424028 0.445520
v -0.155122 -0.418040 0.011967
v 0.192454 1.089597 -1.021183
v 0.715355 1.461446 -0.528774
v 0.086551 1.623117 -0.923290
v -0.519017 1.626277 -0.318119
v 0.652834 1.143958 -0.779170
v 0.645778 1.308493 0.006917
v 0.712469 0.808860 0.035577
v 0.123558 1.245298 0.596970
v 0.254525 1.028727 0.591268
v -0.205752 1.073656 0.298162
v -0.248823 1.008590 0.565867
v -0.278928 1.161317 0.019047
v -0.459132 0.858889 0.229210
v -0.320911 1.310581 0.014014
v -0.537359 0.839075 -0.460598
v -0.332024 0.947759 -1.113141
v 1.120326 0.486405 -0.955948
v 1.223703 0.418903 -0.573359
v 1.384287 -0.478966 -1.015272
v 1.174963 -0.424577 -0.566833
v 1.395817 -0.123637 -1.554062
v 1.170913 0.228237 -1.374967
v 1.206003 -0.151205 -0.098471
v 1.228798 0.119028 -0.174732
v 1.452837 -0.345706 -0.444362
v 1.548105 0.208561 -0.462381
v 1.766456 -0.296435 -1.146024
v 1.651773 0.337737 -1.038567
v -0.029042 0.348331 -1.535819
v -0.001615 0.146287 -1.424447
v 0.025812 -0.055757 -1.313075
v 1.133202 0.309954 -1.365992
v 1.095492 0.391670 -1.357016
v 1.057781 0.473386 -1.348041
v 0.402518 -0.302687 -1.259108
v 0.751796 -0.347573 -1.316512
v 1.101075 -0.392460 -1.373916
v 0.212665 0.551557 -1.570160
v 0.481801 0.552739 -1.493128
v 0.750936 0.553921 -1.416097
v 1.436719 -0.358919 -1.462006
v 1.423085 -0.280491 -1.492692
v 1.409451 -0.202064 -1.523377
v 1.339591 -0.035668 -1.509289
v 1.283365 0.052300 -1.464515
v 1.227139 0.140269 -1.419741
v 0.034954 -0.123105 -1.275951
v 0.044097 -0.190453 -1.238827
v 1.045211 0.500625 -1.345049
v 1.032641 0.527864 -1.342058
v 1.217501 -0.407422 -1.393051
v 1.333927 -0.422384 -1.412186
v 0.840647 0.554315 -1.390420
v 0.930359 0.554709 -1.364743
v 1.404906 -0.175921 -1.533605
v 1.400361 -0.149779 -1.543834
v 1.208397 0.169592 -1.404816
v 1.189655 0.198915 -1.389892
v -0.047327 0.483027 -1.610067
v -0.038185 0.415679 -1.572943
v -0.019900 0.280983 -1.498695
v -0.010758 0.213635 -1.461571
v 0.007527 0.078939 -1.387323
v 0.016670 0.011591 -1.350199
v 1.158343 0.255476 -1.371975
v 1.145773 0.282715 -1.368983
v 1.120632 0.337193 -1.363000
v 1.108062 0.364431 -1.360008
v 1.082922 0.418909 -1.354025
v 1.070351 0.446148 -1.351033
v 0.169665 -0.272763 -1.220838
v 0.286091 -0.287725 -1.239973
v 0.518944 -0.317649 -1.278242
v 0.635370 -0.332611 -1.297377
v 0.868223 -0.362535 -1.335647
v 0.984649 -0.377498 -1.354782
v 0.033242 0.550769 -1.621514
v 0.122954 0.551163 -1.595837
v 0.302377 0.551951 -1.544483
v 0.392089 0.552345 -1.518805
v 0.571512 0.553133 -1.467451
v 0.661224 0.553527 -1.441774
v 1.445809 -0.411204 -1.441549
v 1.441264 -0.385061 -1.451778
v 1.432175 -0.332776 -1.472235
v 1.427630 -0.306634 -1.482463
v 1.418540 -0.254349 -1.502920
v 1.413996 -0.228206 -1.513148
v 1.377075 -0.094314 -1.539138
v 1.358333 -0.064991 -1.524213
v 1.320849 -0.006345 -1.494364
v 1.302107 0.022978 -1.479439
v 1.264623 0.081623 -1.449590
v 1.245881 0.110946 -1.434665
v 0.044097 -0.190453 -1.238827
v 0.053239 -0.257801 -1.201703
v 1.032641 0.527864 -1.342058
v 1.020071 0.555103 -1.339066
v 1.333927 -0.422384 -1.412186
v 1.450354 -0.437346 -1.431321
v 0.930359 0.554709 -1.364743
v 1.400361 -0.149779 -1.543834
v 1.395817 -0.123637 -1.554062
v 1.189655 0.198915 -1.389892
v 1.170913 0.228237 -1.374967
v -0.038185 0.415679 -1.572943
v -0.029042 0.348331 -1.535819
v -0.010758 0.213635 -1.461571
v -0.001615 0.146287 -1.424447
v 0.016670 0.011591 -1.350199
v 0.025812 -0.055757 -1.313075
v 1.145773 0.282715 -1.368983
v 1.133202 0.309954 -1.365992
v 1.108062 0.364431 -1.360008
v 1.095492 0.391670 -1.357016
v 1.070351 0.446148 -1.351033
v 1.057781 0.473386 -1.348041
v 0.286091 -0.287725 -1.239973
v 0.402518 -0.302687 -1.259108
v 0.635370 -0.332611 -1.297377
v 0.751796 -0.347573 -1.316512
v 0.984649 -0.377498 -1.354782
v 1.101075 -0.392460 -1.373916
v 0.122954 0.551163 -1.595837
v 0.212665 0.551557 -1.570160
v 0.392089 0.552345 -1.518805
v 0.481801 0.552739 -1.493128
v 0.661224 0.553527 -1.441774
v 0.750936 0.553921 -1.416097
v 1.441264 -0.385061 -1.451778
v 1.436719 -0.358919 -1.462006
v 1.427630 -0.306634 -1.482463
v 1.423085 -0.280491 -1.492692
v 1.413996 -0.228206 -1.513148
v 1.409451 -0.202064 -1.523377
v 1.358333 -0.064991 -1.524213
v 1.339591 -0.035668 -1.509289
v 1.302107 0.022978 -1.479439
v 1.283365 0.052300 -1.464515
v 1.245881 0.110946 -1.434665
v 1.227139 0.140269 -1.419741
v 0.034954 -0.123105 -1.275951
v 1.045211 0.500625 -1.345049
v 1.217501 -0.407422 -1.393051
v 0.840647 0.554315 -1.390420
v 1.404906 -0.175921 -1.533605
v 1.208397 0.169592 -1.404816
v -0.056470 0.550375 -1.647191
v -0.047327 0.483027 -1.610067
v -0.019900 0.280983 -1.498695
v 0.007527 0.078939 -1.387323
v 1.158343 0.255476 -1.371975
v 1.120632 0.337193 -1.363000
v 1.082922 0.418909 -1.354025
v 0.169665 -0.272763 -1.220838
v 0.518944 -0.317649 -1.278242
v 0.868223 -0.362535 -1.335647
v 0.033242 0.550769 -1.621514
v 0.302377 0.551951 -1.544483
v 0.571512 0.553133 -1.467451
v 1.445809 -0.411204 -1.441549
v 1.432175 -0.332776 -1.472235
v 1.418540 -0.254349 -1.502920
v 1.377075 -0.094314 -1.539138
v 1.320849 -0.006345 -1.494364
v 1.264623 0.081623 -1.449590
vn -0.0000 1.0000 -0.0000
vn 0.0775 0.1948 -0.9778
vn -0.8543 -0.3780 -0.3566
vn 0.7058 0.6650 -0.2441
vn -0.5623 0.5592 -0.6092
vn 0.2941 0.9525 -0.0785
vn 0.0744 -0.9949 0.0686
vn 0.1324 -0.9823 0.1325
vn 0.6114 -0.0421 0.7902
vn 0.5936 0.8027 0.0569
vn 0.5256 0.7976 0.2960
vn -0.1897 -0.5804 0.7920
vn 0.2127 -0.9475 0.2387
vn 0.4723 0.8590 0.1976
vn -0.2550 0.4328 0.8647
vn 0.4897 0.7077 0.5092
vn -0.7664 -0.4882 0.4175
vn 0.1288 -0.9774 -0.1675
vn -0.4867 0.6207 0.6146
vn -0.8866 0.2585 0.3836
vn -0.7230 0.3466 0.5977
vn -0.4551 -0.8847 -0.1010
vn -0.1484 -0.9888 0.0164
vn -0.8227 0.5480 0.1509
vn -0.9215 0.3274 -0.2088
vn -0.8980 0.2937 0.3277
vn -0.1340 -0.9794 -0.1513
vn -0.2947 -0.9556 -0.0066
vn -0.1586 -0.9721 -0.1731
vn -0.9083 0.4180 -0.0183
vn -0.1941 -0.0215 0.9807
vn 0.1832 0.9737 0.1351
vn -0.0797 0.7489 -0.6579
vn 0.4679 0.7765 -0.4220
vn 0.8371 -0.4727 0.2752
vn -0.1783 -0.9664 -0.1854
vn 0.2382 -0.9351 0.2626
vn 0.5302 -0.7996 0.2819
vn -0.6077 -0.2097 -0.7660
vn 0.1308 0.7016 -0.7005
vn -0.6707 0.2950 0.6805
vn -0.8989 -0.4144 0.1423
vn -0.7984 0.5755 -0.1774
vn -0.8181 0.5724 0.0562
vn -0.7974 -0.2051 0.5675
vn -0.8490 0.5138 -0.1232
vn -0.6567 0.6543 0.3751
vn -0.6564 0.6533 0.3773
vn -0.8214 0.5610 0.1030
vn -0.5132 0.7534 0.4111
vn -0.5397 0.8338 0.1158
vn -0.8899 0.4549 -0.0326
vn 0.4620 0.6388 0.6152
vn 0.6692 0.3880 0.6338
vn 0.4243 0.2336 0.8749
vn 0.9363 0.2274 0.2678
vn 0.9760 0.1398 0.1667
vn 0.9842 0.1377 0.1109
vn 0.5766 0.4834 -0.6587
vn 0.5553 0.4449 -0.7027
vn 0.5379 0.4542 -0.7102
vn -0.1433 0.9785 -0.1485
vn -0.7069 -0.0105 -0.7073
vn -0.0967 0.7415 -0.6639
vn 0.7702 0.5143 0.3771
vn 0.3748 0.9082 0.1864
vn 0.3171 -0.8281 0.4623
vn 0.7429 -0.0299 0.6688
vn 0.3647 -0.9155 0.1699
vn 0.9509 -0.0078 0.3094
vn 0.6525 -0.6389 -0.4074
vn 0.6179 0.4081 -0.6721
vn -0.0284 -0.1988 -0.9796
s 0
usemtl Green
f 120//1 119//1 196//1 166//1
f 4//2 35//2 37//2
f 7//3 25//3 34//3
f 10//4 52//4 51//4 5//4 4//4 39//4 9//4
f 30//5 50//5 1//5 2//5 31//5
f 8//6 36//6 37//6
f 12//7 7//7 6//7 53//7 54//7 11//7
f 12//8 25//8 7//8
f 19//9 15//9 14//9 18//9
f 14//10 10//10 9//10 41//10 13//10
f 8//11 40//11 36//11
f 24//12 20//12 19//12 23//12
f 16//13 25//13 12//13
f 18//14 14//14 13//14 43//14 17//14
f 23//15 19//15 18//15 22//15
f 8//16 42//16 40//16
f 29//17 24//17 23//17 28//17
f 20//18 25//18 16//18
f 22//19 18//19 17//19 45//19 21//19
f 28//20 23//20 22//20 27//20
f 8//21 44//21 42//21
f 33//22 29//22 28//22 32//22
f 24//23 25//23 20//23
f 27//24 22//24 21//24 47//24 26//24
f 32//25 28//25 27//25 31//25
f 8//26 46//26 44//26
f 33//27 32//27 3//27 34//27
f 29//28 25//28 24//28
f 34//29 25//29 33//29
f 31//30 27//30 26//30 49//30 30//30
f 8//31 48//31 46//31
f 33//32 25//32 29//32
f 1//33 50//33 38//33
f 62//34 56//34 99//34 100//34 66//34 101//34 102//34 67//34 103//34 104//34 68//34 83//34 84//34 5//34 51//34
f 15//35 11//35 57//35 58//35 10//35 14//35
f 34//36 3//36 105//36 106//36 69//36 107//36 108//36 70//36 109//36 110//36 71//36 85//36 86//36 6//36 7//36
f 16//37 12//37 11//37 15//37
f 20//38 16//38 15//38 19//38
f 31//39 2//39 93//39 94//39 63//39 95//39 96//39 64//39 97//39 98//39 65//39 81//39 82//39 3//39 32//39
f 5//40 88//40 87//40 74//40 116//40 115//40 73//40 114//40 113//40 72//40 112//40 111//40 2//40 1//40 35//40 4//40
f 38//41 48//41 8//41
f 38//42 50//42 48//42
f 50//43 30//43 48//43
f 46//44 49//44 26//44
f 46//45 48//45 49//45
f 48//46 30//46 49//46
f 44//47 47//47 21//47
f 44//48 46//48 47//48
f 46//49 26//49 47//49
f 42//50 45//50 17//50
f 42//51 44//51 45//51
f 44//52 21//52 45//52
f 40//53 43//53 13//53
f 40//54 42//54 43//54
f 42//55 17//55 43//55
f 36//56 41//56 9//56
f 36//57 40//57 41//57
f 40//58 13//58 41//58
f 37//59 39//59 4//59
f 37//60 36//60 39//60
f 36//61 9//61 39//61
f 37//62 38//62 8//62
f 37//63 35//63 38//63
f 35//64 1//64 38//64
f 58//65 60//65 52//65 10//65
f 60//66 62//66 51//66 52//66
f 11//67 54//67 59//67 57//67
f 57//68 59//68 60//68 58//68
f 54//69 53//69 61//69 59//69
f 59//70 61//70 62//70 60//70
f 53//71 6//71 117//71 118//71 75//71 119//71 120//71 76//71 121//71 122//71 77//71 89//71 90//71 55//71 61//71
f 61//72 55//72 123//72 124//72 78//72 125//72 126//72 79//72 127//72 128//72 80//72 91//72 92//72 56//72 62//72
f 134//73 133//73 178//73 157//73 156//73 191//73 155//73 154//73 190//73 153//73 152//73 189//73 130//73 129//73 176//73 145//73 144//73 185//73 143//73 142//73 184//73 141//73 140//73 183//73 182//73 192//73 158//73 159//73 193//73 160//73 161//73 194//73 162//73 163//73 179//73 135//73 132//73 131//73 177//73 151//73 150//73 188//73 149//73 148//73 187//73 147//73 146//73 186//73 139//73 138//73 181//73 175//73 174//73 200//73 173//73 172//73 199//73 171//73 170//73 198//73 137//73 136//73 180//73 169//73 168//73 197//73 167//73 166//73 196//73 165//73 164//73 195//73
f 94//1 93//1 183//1 140//1
f 68//1 104//1 150//1 151//1
f 121//1 76//1 167//1 197//1
f 95//1 63//1 141//1 184//1
f 69//1 106//1 152//1 153//1
f 122//1 121//1 197//1 168//1
f 96//1 95//1 184//1 142//1
f 70//1 108//1 154//1 155//1
f 123//1 55//1 137//1 198//1
f 97//1 64//1 143//1 185//1
f 71//1 110//1 156//1 157//1
f 124//1 123//1 198//1 170//1
f 98//1 97//1 185//1 144//1
f 112//1 72//1 159//1 158//1
f 125//1 78//1 171//1 199//1
f 99//1 56//1 139//1 186//1
f 114//1 73//1 161//1 160//1
f 55//1 90//1 136//1 137//1
f 126//1 125//1 199//1 172//1
f 100//1 99//1 186//1 146//1
f 116//1 74//1 163//1 162//1
f 56//1 92//1 138//1 139//1
f 127//1 79//1 173//1 200//1
f 101//1 66//1 147//1 187//1
f 75//1 118//1 164//1 165//1
f 128//1 127//1 200//1 174//1
f 102//1 101//1 187//1 148//1
f 76//1 120//1 166//1 167//1
f 103//1 67//1 149//1 188//1
f 77//1 122//1 168//1 169//1
f 104//1 103//1 188//1 150//1
f 78//1 124//1 170//1 171//1
f 105//1 3//1 130//1 189//1
f 79//1 126//1 172//1 173//1
f 106//1 105//1 189//1 152//1
f 80//1 128//1 174//1 175//1
f 107//1 69//1 153//1 190//1
f 81//1 65//1 145//1 176//1
f 108//1 107//1 190//1 154//1
f 82//1 81//1 176//1 129//1
f 109//1 70//1 155//1 191//1
f 83//1 68//1 151//1 177//1
f 110//1 109//1 191//1 156//1
f 84//1 83//1 177//1 131//1
f 2//1 111//1 192//1 182//1
f 85//1 71//1 157//1 178//1
f 111//1 112//1 158//1 192//1
f 86//1 85//1 178//1 133//1
f 72//1 113//1 193//1 159//1
f 5//1 84//1 131//1 132//1
f 74//1 87//1 179//1 163//1
f 113//1 114//1 160//1 193//1
f 6//1 86//1 133//1 134//1
f 87//1 88//1 135//1 179//1
f 3//1 82//1 129//1 130//1
f 73//1 115//1 194//1 161//1
f 89//1 77//1 169//1 180//1
f 63//1 94//1 140//1 141//1
f 115//1 116//1 162//1 194//1
f 90//1 89//1 180//1 136//1
f 64//1 96//1 142//1 143//1
f 117//1 6//1 134//1 195//1
f 91//1 80//1 175//1 181//1
f 65//1 98//1 144//1 145//1
f 118//1 117//1 195//1 164//1
f 92//1 91//1 181//1 138//1
f 66//1 100//1 146//1 147//1
f 119//1 75//1 165//1 196//1
f 88//1 5//1 132//1 135//1
f 93//1 2//1 182//1 183//1
f 67//1 102//1 148//1 149//1
