# Blender 3.4.0
# www.blender.org
mtllib picnic-table.mtl
o picnic_table
v -2.900923 1.513875 1.186554
v -2.900923 1.873897 1.186554
v -2.909873 1.513875 -1.090521
v -2.909873 1.873897 -1.090521
v -2.540904 1.513875 1.185139
v -2.540904 1.873897 1.185139
v -2.549854 1.513875 -1.091936
v -2.549854 1.873897 -1.091936
v 2.969933 1.513875 1.163477
v 2.969933 1.873897 1.163477
v 2.960982 1.513875 -1.113597
v 2.960982 1.873897 -1.113597
v 2.609914 1.513875 1.164892
v 2.609914 1.873897 1.164892
v 2.600963 1.513875 -1.112182
v 2.600963 1.873897 -1.112182
v -2.860557 -0.122376 1.981970
v -2.863950 1.554125 1.118919
v -2.862701 -0.122376 1.436556
v -2.866093 1.554125 0.573504
v -2.630876 -0.122376 1.981067
v -2.634268 1.554125 1.118016
v -2.633019 -0.122376 1.435652
v -2.636412 1.554125 0.572601
v 2.935821 -0.122376 1.959186
v 2.932428 1.554125 1.096135
v 2.933677 -0.122376 1.413772
v 2.930285 1.554125 0.550720
v 2.706140 -0.122376 1.960089
v 2.702747 1.554125 1.097038
v 2.703995 -0.122376 1.414674
v 2.700603 1.554125 0.551623
v -2.875486 -0.122376 -1.816236
v -2.872094 1.554125 -0.953184
v -2.873343 -0.122376 -1.270821
v -2.869950 1.554125 -0.407770
v -2.645805 -0.122376 -1.817139
v -2.642413 1.554125 -0.954087
v -2.643661 -0.122376 -1.271724
v -2.640269 1.554125 -0.408673
v 2.920891 -0.122376 -1.839020
v 2.924283 1.554125 -0.975968
v 2.923035 -0.122376 -1.293605
v 2.926428 1.554125 -0.430554
v 2.691210 -0.122376 -1.838117
v 2.694602 1.554125 -0.975066
v 2.693353 -0.122376 -1.292703
v 2.696746 1.554125 -0.429651
v -2.842776 0.461031 2.165552
v -2.840967 0.821053 2.625576
v -2.859424 0.461032 -2.069946
v -2.861232 0.821054 -2.529970
v -2.634001 0.461031 2.164731
v -2.632193 0.821053 2.624755
v -2.650649 0.461032 -2.070766
v -2.652458 0.821054 -2.530790
v 2.919483 0.461031 2.142902
v 2.921291 0.821053 2.602926
v 2.902834 0.461032 -2.092596
v 2.901026 0.821054 -2.552619
v 2.710709 0.461031 2.143723
v 2.712517 0.821053 2.603747
v 2.694060 0.461032 -2.091775
v 2.692251 0.821054 -2.551799
v -3.284251 1.741148 -0.324748
v -3.284829 1.741149 -0.471961
v -3.280484 1.741148 0.633471
v -3.281063 1.741148 0.486257
v -3.281063 2.086623 0.486257
v -3.280484 2.086623 0.633471
v -3.284829 2.086623 -0.471961
v -3.284251 2.086623 -0.324747
v 3.344555 1.741148 0.460213
v 3.345134 1.741148 0.607428
v 3.340789 1.741149 -0.498005
v 3.341367 1.741148 -0.350791
v 3.341367 2.086623 -0.350791
v 3.340789 2.086623 -0.498005
v 3.345134 2.086623 0.607428
v 3.344555 2.086623 0.460213
v -3.284829 2.046980 -0.471961
v -3.284251 2.046980 -0.324747
v 3.341367 2.046980 -0.350791
v 3.340789 2.046980 -0.498005
v -3.281063 2.046980 0.486257
v -3.280484 2.046980 0.633471
v 3.345134 2.046980 0.607428
v 3.344555 2.046980 0.460213
v 3.340789 1.780791 -0.498005
v 3.341367 1.780791 -0.350791
v -3.284251 1.780791 -0.324748
v -3.284829 1.780791 -0.471961
v 3.344555 1.780791 0.460213
v 3.345134 1.780791 0.607428
v -3.280484 1.780791 0.633471
v -3.281063 1.780791 0.486257
v -3.054974 1.741148 1.520952
v -3.277865 1.741148 1.299807
v -3.212220 1.741148 1.456541
v -3.277865 2.086622 1.299807
v -3.054974 2.086622 1.520952
v -3.212220 2.086622 1.456541
v -3.287419 1.741149 -1.130813
v -3.066273 1.741149 -1.353703
v -3.223008 1.741149 -1.288059
v -3.066273 2.086623 -1.353703
v -3.287419 2.086623 -1.130813
v -3.223008 2.086623 -1.288059
v 3.347753 1.741148 1.273764
v 3.126608 1.741148 1.496654
v 3.283342 1.741148 1.431010
v 3.126608 2.086622 1.496654
v 3.347753 2.086622 1.273764
v 3.283342 2.086622 1.431010
v 3.115308 1.741149 -1.378001
v 3.338199 1.741149 -1.156856
v 3.272554 1.741149 -1.313590
v 3.338199 2.086623 -1.156856
v 3.115308 2.086623 -1.378001
v 3.272554 2.086623 -1.313590
v -3.153856 0.858376 2.323617
v -3.153651 0.858376 2.375793
v 3.763515 0.858376 2.348604
v 3.763310 0.858376 2.296428
v 3.763515 1.061534 2.348604
v 3.763310 1.061534 2.296428
v 3.763310 0.828171 2.296428
v 3.763515 0.828171 2.348604
v -3.153856 1.061534 2.323617
v -3.153650 1.061534 2.375793
v -3.153650 0.828171 2.375793
v -3.153856 0.828171 2.323617
v -3.153856 1.031329 2.323617
v -3.153651 1.031329 2.375793
v 3.763515 1.031329 2.348604
v 3.763310 1.031329 2.296428
v 3.529188 1.061534 2.841435
v 3.764519 1.061534 2.604246
v 3.695978 1.061534 2.771579
v 3.764519 0.828171 2.604246
v 3.529188 0.828171 2.841435
v 3.695978 0.828171 2.771579
v 3.762305 1.061534 2.040786
v 3.525116 1.061535 1.805455
v 3.692449 1.061534 1.873997
v 3.525116 0.828171 1.805455
v 3.762305 0.828171 2.040786
v 3.692449 0.828171 1.873997
v -3.152646 1.061534 2.631435
v -2.915456 1.061534 2.866766
v -3.082790 1.061534 2.798224
v -2.915456 0.828171 2.866766
v -3.152646 0.828171 2.631435
v -3.082790 0.828171 2.798224
v -2.919528 1.061534 1.830786
v -3.154860 1.061534 2.067975
v -3.086318 1.061534 1.900642
v -3.154860 0.828171 2.067975
v -2.919528 0.828171 1.830786
v -3.086318 0.828171 1.900642
v -3.171462 0.858377 -2.155566
v -3.171667 0.858377 -2.207741
v 3.745499 0.858377 -2.234931
v 3.745703 0.858377 -2.182755
v 3.745498 1.061535 -2.234931
v 3.745703 1.061535 -2.182755
v 3.745703 0.828172 -2.182755
v 3.745498 0.828172 -2.234931
v -3.171461 1.061535 -2.155566
v -3.171667 1.061535 -2.207742
v -3.171667 0.828172 -2.207742
v -3.171461 0.828172 -2.155566
v -3.171462 1.031330 -2.155566
v -3.171667 1.031330 -2.207741
v 3.745499 1.031330 -2.234931
v 3.745703 1.031330 -2.182755
v 3.507305 1.061535 -2.725904
v 3.744494 1.061535 -2.490573
v 3.674638 1.061535 -2.657362
v 3.744494 0.828172 -2.490573
v 3.507305 0.828172 -2.725904
v 3.674638 0.828172 -2.657362
v 3.746708 1.061535 -1.927113
v 3.511377 1.061535 -1.689925
v 3.678166 1.061535 -1.759780
v 3.511377 0.828172 -1.689925
v 3.746708 0.828172 -1.927113
v 3.678166 0.828172 -1.759780
v -3.172672 1.061535 -2.463384
v -2.937340 1.061535 -2.700573
v -3.104130 1.061535 -2.630717
v -2.937340 0.828172 -2.700573
v -3.172672 0.828172 -2.463384
v -3.104130 0.828172 -2.630717
v -2.933267 1.061535 -1.664593
v -3.170456 1.061535 -1.899924
v -3.100601 1.061535 -1.733135
v -3.170456 0.828172 -1.899924
v -2.933267 0.828172 -1.664593
v -3.100601 0.828172 -1.733135
vn -1.0000 -0.0000 0.0039
vn -0.0039 -0.0000 -1.0000
vn 1.0000 -0.0000 -0.0039
vn 0.0039 -0.0000 1.0000
vn -0.0000 -1.0000 -0.0000
vn -0.0000 1.0000 -0.0000
vn -0.0035 -0.4577 -0.8891
vn 0.0035 0.4577 0.8891
vn 0.0035 -0.4577 0.8891
vn -0.0035 0.4577 -0.8891
vn -0.0024 -0.7875 -0.6163
vn 0.0024 -0.7875 0.6163
vn 0.0012 -0.0000 1.0000
vn 0.0033 -0.0000 1.0000
vn 0.0020 -0.0000 1.0000
vn 0.0020 0.0005 1.0000
vn -0.0012 -0.0000 -1.0000
vn -0.0023 -0.0000 -1.0000
vn -0.0019 -0.0000 -1.0000
vn -0.0001 1.0000 -0.0000
vn -0.0000 1.0000 -0.0001
vn -0.0000 -0.0000 1.0000
vn -0.0000 -0.0000 -1.0000
vn -0.3790 -0.0000 0.9254
vn -0.9224 -0.0000 0.3863
vn -0.3863 -0.0000 -0.9224
vn -0.9254 -0.0000 -0.3791
vn 0.9224 -0.0000 -0.3863
vn 0.3791 -0.0000 -0.9254
vn 0.3863 -0.0000 0.9224
vn 0.9254 -0.0000 0.3791
vn -1.0000 -0.0000 -0.0000
vn 0.2615 -0.0000 0.9652
vn -0.6307 -0.0000 0.7760
vn 0.9254 -0.0000 0.3790
vn 0.3790 -0.0000 -0.9254
vn -0.9254 -0.0000 -0.3790
vn -0.9884 -0.0000 0.1520
vn -0.4473 -0.0000 -0.8944
vn -0.4763 -0.0000 -0.8793
vn 0.3091 -0.0000 0.9510
vt 0.375000 0.000000
vt 0.375000 1.000000
vt 0.125000 0.750000
vt 0.625000 0.000000
vt 0.625000 1.000000
vt 0.875000 0.750000
vt 0.375000 0.250000
vt 0.125000 0.500000
vt 0.625000 0.250000
vt 0.875000 0.500000
vt 0.375000 0.750000
vt 0.625000 0.750000
vt 0.375000 0.500000
vt 0.625000 0.500000
vt 0.375000 0.000000
vt 0.375000 1.000000
vt 0.125000 0.750000
vt 0.625000 0.000000
vt 0.625000 1.000000
vt 0.875000 0.750000
vt 0.375000 0.250000
vt 0.125000 0.500000
vt 0.625000 0.250000
vt 0.875000 0.500000
vt 0.375000 0.750000
vt 0.625000 0.750000
vt 0.375000 0.500000
vt 0.625000 0.500000
vt 0.375000 0.000000
vt 0.375000 1.000000
vt 0.125000 0.750000
vt 0.625000 0.000000
vt 0.625000 1.000000
vt 0.875000 0.750000
vt 0.375000 0.250000
vt 0.125000 0.500000
vt 0.625000 0.250000
vt 0.875000 0.500000
vt 0.375000 0.750000
vt 0.625000 0.750000
vt 0.375000 0.500000
vt 0.625000 0.500000
vt 0.375000 0.000000
vt 0.375000 1.000000
vt 0.125000 0.750000
vt 0.625000 0.000000
vt 0.625000 1.000000
vt 0.875000 0.750000
vt 0.375000 0.250000
vt 0.125000 0.500000
vt 0.625000 0.250000
vt 0.875000 0.500000
vt 0.375000 0.750000
vt 0.625000 0.750000
vt 0.375000 0.500000
vt 0.625000 0.500000
vt 0.375000 0.000000
vt 0.375000 1.000000
vt 0.125000 0.750000
vt 0.625000 0.000000
vt 0.625000 1.000000
vt 0.875000 0.750000
vt 0.375000 0.250000
vt 0.125000 0.500000
vt 0.625000 0.250000
vt 0.875000 0.500000
vt 0.375000 0.750000
vt 0.625000 0.750000
vt 0.375000 0.500000
vt 0.625000 0.500000
vt 0.375000 0.000000
vt 0.375000 1.000000
vt 0.125000 0.750000
vt 0.625000 0.000000
vt 0.625000 1.000000
vt 0.875000 0.750000
vt 0.375000 0.250000
vt 0.125000 0.500000
vt 0.625000 0.250000
vt 0.875000 0.500000
vt 0.375000 0.750000
vt 0.625000 0.750000
vt 0.375000 0.500000
vt 0.625000 0.500000
vt 0.375000 0.000000
vt 0.375000 1.000000
vt 0.125000 0.750000
vt 0.625000 0.000000
vt 0.625000 1.000000
vt 0.875000 0.750000
vt 0.375000 0.250000
vt 0.125000 0.500000
vt 0.625000 0.250000
vt 0.875000 0.500000
vt 0.375000 0.750000
vt 0.625000 0.750000
vt 0.375000 0.500000
vt 0.625000 0.500000
vt 0.375000 0.000000
vt 0.375000 1.000000
vt 0.125000 0.750000
vt 0.625000 0.000000
vt 0.625000 1.000000
vt 0.875000 0.750000
vt 0.375000 0.250000
vt 0.125000 0.500000
vt 0.625000 0.250000
vt 0.875000 0.500000
vt 0.375000 0.750000
vt 0.625000 0.750000
vt 0.375000 0.500000
vt 0.625000 0.500000
vt 0.375000 0.160591
vt 0.125000 0.589409
vt 0.375000 0.173394
vt 0.125000 0.576606
vt 0.375000 0.077257
vt 0.125000 0.672742
vt 0.125000 0.659940
vt 0.375000 0.090060
vt 0.875000 0.659940
vt 0.625000 0.090060
vt 0.625000 0.077257
vt 0.875000 0.672743
vt 0.625000 0.173394
vt 0.875000 0.576606
vt 0.625000 0.160591
vt 0.875000 0.589409
vt 0.375000 0.659940
vt 0.375000 0.672742
vt 0.375000 0.576606
vt 0.375000 0.589409
vt 0.625000 0.589409
vt 0.625000 0.576606
vt 0.625000 0.672743
vt 0.625000 0.659940
vt 0.625000 0.173394
vt 0.875000 0.576606
vt 0.625000 0.160591
vt 0.875000 0.589409
vt 0.625000 0.589409
vt 0.625000 0.576606
vt 0.875000 0.659940
vt 0.625000 0.090060
vt 0.875000 0.672743
vt 0.625000 0.077257
vt 0.625000 0.672743
vt 0.625000 0.659940
vt 0.375000 0.576606
vt 0.375000 0.589409
vt 0.375000 0.160591
vt 0.125000 0.589409
vt 0.375000 0.173394
vt 0.125000 0.576606
vt 0.375000 0.659940
vt 0.375000 0.672742
vt 0.125000 0.672742
vt 0.375000 0.077257
vt 0.125000 0.659940
vt 0.375000 0.090060
vt 0.133377 0.750000
vt 0.375000 0.991623
vt 0.125000 0.730692
vt 0.375000 0.019308
vt 0.127454 0.744345
vt 0.375000 1.000000
vt 0.375000 0.000000
vt 0.875000 0.730692
vt 0.625000 0.019308
vt 0.866623 0.750000
vt 0.625000 0.991623
vt 0.872546 0.744345
vt 0.625000 1.000000
vt 0.625000 0.000000
vt 0.125000 0.519308
vt 0.375000 0.230692
vt 0.133377 0.500000
vt 0.375000 0.258377
vt 0.292485 0.335218
vt 0.866623 0.500000
vt 0.625000 0.258377
vt 0.875000 0.519308
vt 0.625000 0.230692
vt 0.707515 0.335218
vt 0.375000 0.730692
vt 0.366623 0.750000
vt 0.375000 0.758377
vt 0.374182 0.748115
vt 0.633377 0.750000
vt 0.625000 0.758377
vt 0.625000 0.730692
vt 0.625818 0.748115
vt 0.366623 0.500000
vt 0.375000 0.491623
vt 0.375000 0.519308
vt 0.374182 0.501885
vt 0.625000 0.519308
vt 0.633377 0.500000
vt 0.625000 0.491623
vt 0.625818 0.501885
vt 0.625000 0.618704
vt 0.625000 0.631296
vt 0.875000 0.631296
vt 0.625000 0.118704
vt 0.875000 0.618704
vt 0.625000 0.131296
vt 0.125000 0.631296
vt 0.375000 0.118704
vt 0.375000 0.131296
vt 0.125000 0.618704
vt 0.625000 0.131296
vt 0.875000 0.618704
vt 0.875000 0.631296
vt 0.625000 0.118704
vt 0.375000 0.618704
vt 0.375000 0.631296
vt 0.625000 0.631296
vt 0.625000 0.618704
vt 0.375000 0.618704
vt 0.375000 0.631296
vt 0.125000 0.631296
vt 0.375000 0.118704
vt 0.375000 0.131296
vt 0.125000 0.618704
vt 0.133539 0.750000
vt 0.375000 0.991461
vt 0.125000 0.692986
vt 0.375000 0.057014
vt 0.127501 0.733301
vt 0.375000 1.000000
vt 0.375000 0.000000
vt 0.875000 0.692986
vt 0.625000 0.057014
vt 0.866461 0.750000
vt 0.625000 0.991461
vt 0.872499 0.733301
vt 0.625000 1.000000
vt 0.625000 0.000000
vt 0.125000 0.557014
vt 0.375000 0.192986
vt 0.133539 0.500000
vt 0.375000 0.258539
vt 0.292500 0.338900
vt 0.866461 0.500000
vt 0.625000 0.258539
vt 0.875000 0.557014
vt 0.625000 0.192986
vt 0.707500 0.338900
vt 0.375000 0.692986
vt 0.366461 0.750000
vt 0.375000 0.758539
vt 0.374166 0.744434
vt 0.633539 0.750000
vt 0.625000 0.758539
vt 0.625000 0.692986
vt 0.625834 0.744434
vt 0.366461 0.500000
vt 0.375000 0.491461
vt 0.375000 0.557014
vt 0.374166 0.505566
vt 0.625000 0.557014
vt 0.633539 0.500000
vt 0.625000 0.491461
vt 0.625834 0.505566
vt 0.625000 0.618704
vt 0.625000 0.631296
vt 0.875000 0.631296
vt 0.625000 0.118704
vt 0.875000 0.618704
vt 0.625000 0.131296
vt 0.125000 0.631296
vt 0.375000 0.118704
vt 0.375000 0.131296
vt 0.125000 0.618704
vt 0.625000 0.131296
vt 0.875000 0.618704
vt 0.875000 0.631296
vt 0.625000 0.118704
vt 0.375000 0.618704
vt 0.375000 0.631296
vt 0.625000 0.631296
vt 0.625000 0.618704
vt 0.375000 0.618704
vt 0.375000 0.631296
vt 0.125000 0.631296
vt 0.375000 0.118704
vt 0.375000 0.131296
vt 0.125000 0.618704
vt 0.133539 0.750000
vt 0.375000 0.991461
vt 0.125000 0.692986
vt 0.375000 0.057014
vt 0.127501 0.733301
vt 0.375000 1.000000
vt 0.375000 0.000000
vt 0.875000 0.692986
vt 0.625000 0.057014
vt 0.866461 0.750000
vt 0.625000 0.991461
vt 0.872499 0.733301
vt 0.625000 1.000000
vt 0.625000 0.000000
vt 0.125000 0.557014
vt 0.375000 0.192986
vt 0.133539 0.500000
vt 0.375000 0.258539
vt 0.292500 0.338900
vt 0.866461 0.500000
vt 0.625000 0.258539
vt 0.875000 0.557014
vt 0.625000 0.192986
vt 0.707500 0.338900
vt 0.375000 0.692986
vt 0.366461 0.750000
vt 0.375000 0.758539
vt 0.374166 0.744434
vt 0.633539 0.750000
vt 0.625000 0.758539
vt 0.625000 0.692986
vt 0.625834 0.744434
vt 0.366461 0.500000
vt 0.375000 0.491461
vt 0.375000 0.557014
vt 0.374166 0.505566
vt 0.625000 0.557014
vt 0.633539 0.500000
vt 0.625000 0.491461
vt 0.625834 0.505566
s 1
usemtl table
f 1/1/1 2/4/1 4/9/1 3/7/1
f 3/7/2 4/9/2 8/14/2 7/13/2
f 7/13/3 8/14/3 6/12/3 5/11/3
f 5/11/4 6/12/4 2/5/4 1/2/4
f 3/8/5 7/13/5 5/11/5 1/3/5
f 8/14/6 4/10/6 2/6/6 6/12/6
f 9/15/3 11/21/3 12/23/3 10/18/3
f 11/21/2 15/27/2 16/28/2 12/23/2
f 15/27/1 13/25/1 14/26/1 16/28/1
f 13/25/4 9/16/4 10/19/4 14/26/4
f 11/22/5 9/17/5 13/25/5 15/27/5
f 16/28/6 14/26/6 10/20/6 12/24/6
f 17/29/1 18/32/1 20/37/1 19/35/1
f 19/35/7 20/37/7 24/42/7 23/41/7
f 23/41/3 24/42/3 22/40/3 21/39/3
f 21/39/8 22/40/8 18/33/8 17/30/8
f 19/36/5 23/41/5 21/39/5 17/31/5
f 24/42/6 20/38/6 18/34/6 22/40/6
f 25/43/3 27/49/3 28/51/3 26/46/3
f 27/49/7 31/55/7 32/56/7 28/51/7
f 31/55/1 29/53/1 30/54/1 32/56/1
f 29/53/8 25/44/8 26/47/8 30/54/8
f 27/50/5 25/45/5 29/53/5 31/55/5
f 32/56/6 30/54/6 26/48/6 28/52/6
f 33/57/1 35/63/1 36/65/1 34/60/1
f 35/63/9 39/69/9 40/70/9 36/65/9
f 39/69/3 37/67/3 38/68/3 40/70/3
f 37/67/10 33/58/10 34/61/10 38/68/10
f 35/64/5 33/59/5 37/67/5 39/69/5
f 40/70/6 38/68/6 34/62/6 36/66/6
f 41/71/3 42/74/3 44/79/3 43/77/3
f 43/77/9 44/79/9 48/84/9 47/83/9
f 47/83/1 48/84/1 46/82/1 45/81/1
f 45/81/10 46/82/10 42/75/10 41/72/10
f 43/78/5 47/83/5 45/81/5 41/73/5
f 48/84/6 44/80/6 42/76/6 46/82/6
f 49/85/1 50/88/1 52/93/1 51/91/1
f 51/91/11 52/93/11 56/98/11 55/97/11
f 55/97/3 56/98/3 54/96/3 53/95/3
f 53/95/12 54/96/12 50/89/12 49/86/12
f 51/92/5 55/97/5 53/95/5 49/87/5
f 56/98/6 52/94/6 50/90/6 54/96/6
f 57/99/3 59/105/3 60/107/3 58/102/3
f 59/105/11 63/111/11 64/112/11 60/107/11
f 63/111/1 61/109/1 62/110/1 64/112/1
f 61/109/12 57/100/12 58/103/12 62/110/12
f 59/106/5 57/101/5 61/109/5 63/111/5
f 64/112/6 62/110/6 58/104/6 60/108/6
f 79/135/6 70/124/6 100/168/6 102/172/6 101/170/6 112/189/6 114/192/6 113/191/6
f 103/175/5 105/179/5 104/177/5 115/193/5 117/196/5 116/195/5 75/131/5 66/116/5
f 76/132/3 77/133/3 80/136/3 73/129/3
f 67/118/5 74/130/5 109/185/5 111/188/5 110/186/5 97/161/5 99/165/5 98/163/5
f 66/115/1 71/125/1 107/183/1 103/176/1
f 77/133/6 72/128/6 69/121/6 80/136/6
f 116/195/3 118/197/3 78/134/3 75/131/3
f 74/130/3 79/135/3 113/191/3 109/185/3
f 68/120/1 69/122/1 72/127/1 65/113/1
f 104/178/2 106/181/2 119/199/2 115/194/2
f 98/164/1 100/169/1 70/123/1 67/117/1
f 65/114/5 76/132/5 73/129/5 68/119/5
f 68/119/13 73/129/4 93/155/4 96/159/14
f 71/125/13 66/115/13 92/153/15 81/137/16
f 80/136/4 69/121/13 85/143/14 88/148/4
f 67/117/17 70/123/17 86/146/18 95/158/18
f 74/130/17 67/118/17 95/157/18 94/156/19
f 69/122/13 68/120/13 96/160/14 85/144/14
f 70/124/17 79/135/17 87/147/19 86/145/18
f 73/129/6 80/136/20 88/148/6 93/155/6
f 118/197/6 120/200/6 119/198/6 106/180/6 108/184/6 107/182/6 71/126/6 78/134/6
f 82/140/6 83/141/6 84/142/6 81/138/6
f 86/145/6 87/147/6 88/148/6 85/143/6
f 90/150/5 91/152/5 92/154/5 89/149/5
f 94/156/5 95/157/5 96/159/5 93/155/5
f 83/141/3 90/150/3 89/149/3 84/142/3
f 87/147/3 94/156/3 93/155/3 88/148/3
f 85/144/1 96/160/1 95/158/1 86/146/1
f 81/137/1 92/153/1 91/151/1 82/139/1
f 65/113/6 72/127/21 82/139/6 91/151/6
f 72/128/2 77/133/2 83/141/2 82/140/2
f 77/133/22 76/132/22 90/150/22 83/141/22
f 76/132/2 65/114/2 91/152/2 90/150/2
f 75/131/23 78/134/23 84/142/23 89/149/23
f 78/134/4 71/126/13 81/138/16 84/142/4
f 79/135/17 74/130/17 94/156/19 87/147/19
f 66/116/13 75/131/4 89/149/4 92/154/15
f 97/162/24 101/171/24 102/173/24 99/166/24
f 99/167/25 102/174/25 100/169/25 98/164/25
f 106/181/26 104/178/26 105/179/26 108/184/26
f 108/184/27 105/179/27 103/176/27 107/183/27
f 118/197/28 116/195/28 117/196/28 120/200/28
f 120/200/29 117/196/29 115/194/29 119/199/29
f 112/190/30 110/187/30 111/188/30 114/192/30
f 114/192/31 111/188/31 109/185/31 113/191/31
f 110/187/4 112/190/4 101/171/4 97/162/4
f 130/216/1 131/217/1 153/255/1 149/249/1
f 143/239/6 145/243/6 144/241/6 155/257/6 157/260/6 156/259/6 129/215/6 126/210/6
f 123/203/5 122/202/5 121/201/5 124/205/5
f 125/207/6 130/216/6 149/249/6 151/252/6 150/250/6 137/225/6 139/229/6 138/227/6
f 144/242/2 146/245/2 159/263/2 155/258/2
f 126/209/3 127/211/3 147/247/3 143/240/3
f 131/217/5 128/213/5 140/232/5 142/236/5 141/234/5 152/253/5 154/256/5 153/255/5
f 156/259/1 158/261/1 132/218/1 129/215/1
f 158/261/5 160/264/5 159/262/5 146/244/5 148/248/5 147/246/5 127/212/5 132/218/5
f 127/211/32 126/209/32 136/223/32 124/206/32
f 128/213/2 131/217/2 122/202/2 123/203/2
f 132/218/4 127/212/4 124/205/4 121/201/4
f 130/216/2 125/207/2 135/221/2 134/220/2
f 150/251/4 152/254/4 141/235/4 137/226/4
f 134/220/6 135/221/6 136/224/6 133/219/6
f 122/202/1 134/220/1 133/219/1 121/201/1
f 124/206/3 136/223/3 135/222/3 123/204/3
f 131/217/33 130/216/33 134/220/33 122/202/33
f 125/208/34 128/214/34 123/204/34 135/222/34
f 129/215/23 132/218/23 121/201/23 133/219/23
f 126/210/4 129/215/4 133/219/4 136/224/4
f 137/226/30 141/235/30 142/237/30 139/230/30
f 139/231/35 142/238/35 140/233/35 138/228/35
f 146/245/36 144/242/36 145/243/36 148/248/36
f 148/248/28 145/243/28 143/240/28 147/247/28
f 158/261/37 156/259/37 157/260/37 160/264/37
f 160/264/26 157/260/26 155/258/26 159/263/26
f 152/254/24 150/251/24 151/252/24 154/256/24
f 154/256/25 151/252/25 149/249/25 153/255/25
f 138/228/3 140/233/3 128/214/3 125/208/3
f 170/280/1 189/313/1 193/319/1 171/281/1
f 183/303/6 166/274/6 169/279/6 196/323/6 197/324/6 195/321/6 184/305/6 185/307/6
f 163/267/5 164/269/5 161/265/5 162/266/5
f 165/271/6 178/291/6 179/293/6 177/289/6 190/314/6 191/316/6 189/313/6 170/280/6
f 184/306/4 195/322/4 199/327/4 186/309/4
f 166/273/3 183/304/3 187/311/3 167/275/3
f 171/281/5 193/319/5 194/320/5 192/317/5 181/298/5 182/300/5 180/296/5 168/277/5
f 196/323/1 169/279/1 172/282/1 198/325/1
f 198/325/5 172/282/5 167/276/5 187/310/5 188/312/5 186/308/5 199/326/5 200/328/5
f 167/275/38 164/270/38 176/287/38 166/273/38
f 168/277/4 163/267/4 162/266/4 171/281/4
f 172/282/2 161/265/2 164/269/2 167/276/2
f 170/280/4 174/284/4 175/285/4 165/271/4
f 190/315/2 177/290/2 181/299/2 192/318/2
f 174/284/6 173/283/6 176/288/6 175/285/6
f 162/266/1 161/265/1 173/283/1 174/284/1
f 164/270/3 163/268/3 175/286/3 176/287/3
f 171/281/39 162/266/39 174/284/39 170/280/39
f 165/272/40 175/286/40 163/268/40 168/278/40
f 169/279/41 173/283/41 161/265/41 172/282/41
f 166/274/2 176/288/2 173/283/2 169/279/2
f 177/290/36 179/294/36 182/301/36 181/299/36
f 179/295/28 178/292/28 180/297/28 182/302/28
f 186/309/30 188/312/30 185/307/30 184/306/30
f 188/312/35 187/311/35 183/304/35 185/307/35
f 198/325/25 200/328/25 197/324/25 196/323/25
f 200/328/24 199/327/24 195/322/24 197/324/24
f 192/318/26 194/320/26 191/316/26 190/315/26
f 194/320/37 193/319/37 189/313/37 191/316/37
f 178/292/3 165/272/3 168/278/3 180/297/3
