# Blender 3.4.0
# www.blender.org
mtllib rock.mtl
o rock
v -0.057846 -0.052972 -0.039023
v -0.775284 -0.084439 -0.618410
v 0.218542 -0.052972 -0.889672
v 0.831212 -0.064134 -0.039232
v 0.218674 -0.052972 0.811684
v -0.781452 -0.052972 0.486703
v -0.482290 1.229082 -0.753787
v 0.558666 0.765143 -0.503828
v 0.649569 0.545005 0.615486
v -0.415017 0.991708 0.748502
v -1.202647 1.314105 -0.082001
v -0.165179 1.338096 -0.265624
v 0.104610 -0.052972 -0.539018
v -0.486752 -0.053885 -0.348058
v -0.320715 -0.052972 -0.848035
v -0.881035 -0.083519 -0.099870
v -0.483168 -0.052972 0.269989
v 0.467885 -0.052972 -0.039023
v 0.625181 -0.063703 -0.539221
v 0.104610 -0.052972 0.460972
v 0.623878 -0.066428 0.460725
v -0.320714 -0.052972 0.769989
v -0.904945 0.644429 -0.519811
v -1.009469 0.610136 0.186822
v -0.004241 0.595389 -0.947146
v -0.847637 0.781854 -0.863422
v 0.808442 0.493104 -0.350599
v 0.518543 0.369281 -0.751114
v 0.502168 0.364410 0.813309
v 0.935072 0.358441 0.390023
v -0.652068 0.728407 0.760620
v -0.210999 0.554267 0.857892
v -1.078613 1.348478 -0.486092
v 0.202954 0.908675 -0.708754
v 0.703963 0.693905 0.053185
v -0.064670 0.819211 0.612840
v -0.731742 1.310341 0.433603
v -0.384776 1.448441 -0.575395
v -0.630590 1.643220 -0.207613
v 0.194942 1.007247 -0.366727
v 0.144143 0.942833 0.187801
v -0.275024 1.198110 0.366326
vn 0.0017 -1.0000 0.0006
vn 0.0872 -0.9960 0.0195
vn -0.0000 -1.0000 -0.0000
vn -0.9694 -0.1457 -0.1974
vn -0.0765 -0.1141 -0.9905
vn 0.9107 -0.1726 -0.3754
vn 0.5911 -0.4042 0.6980
vn -0.5124 -0.2073 0.8334
vn -0.9655 -0.1423 -0.2179
vn 0.3673 0.0439 -0.9290
vn 0.9821 -0.0598 -0.1788
vn 0.0520 -0.0392 0.9979
vn -0.8434 -0.0480 0.5352
vn -0.1889 0.6688 -0.7191
vn 0.4764 0.8478 -0.2332
vn 0.4446 0.8543 0.2692
vn 0.5306 0.6492 0.5450
vn -0.4003 0.8376 0.3717
vn 0.5512 0.7893 0.2706
vn 0.2754 0.8348 0.4768
vn 0.2751 0.8002 0.5329
vn 0.5822 0.7665 0.2710
vn 0.5963 0.6434 0.4801
vn 0.3259 0.8528 0.4081
vn 0.6912 0.7079 0.1455
vn 0.4306 0.8911 0.1430
vn 0.5446 0.8380 -0.0349
vn 0.6364 0.7490 -0.1843
vn 0.6379 0.7439 -0.1994
vn 0.2958 0.5201 -0.8012
vn 0.5391 0.8381 -0.0836
vn -0.1882 0.8103 -0.5549
vn -0.5107 0.8556 -0.0840
vn -0.7371 0.0550 0.6736
vn -0.8522 0.1628 0.4973
vn -0.4073 0.4044 0.8189
vn 0.5006 0.4224 0.7556
vn 0.2080 0.5998 0.7727
vn 0.2365 0.6233 0.7453
vn 0.6607 0.7074 0.2512
vn 0.8441 0.5341 -0.0472
vn 0.7637 0.6347 -0.1180
vn 0.5729 0.3917 -0.7200
vn 0.4533 0.3302 -0.8279
vn 0.2717 0.4625 -0.8440
vn -0.2910 0.4453 -0.8468
vn -0.9438 -0.2210 -0.2458
vn -0.9285 -0.2145 -0.3032
vn -0.1454 0.1757 0.9737
vn -0.2498 -0.0944 0.9637
vn -0.0764 -0.1293 0.9887
vn 0.6857 0.2053 0.6984
vn 0.6486 -0.3638 0.6685
vn 0.7880 -0.5232 0.3244
vn 0.7206 0.3133 -0.6185
vn 0.8188 -0.0768 -0.5689
vn 0.6355 -0.2075 -0.7437
vn -0.0368 0.2662 -0.9632
vn -0.1187 -0.0932 -0.9885
vn -0.4174 -0.2794 -0.8647
vn -0.9363 -0.3157 -0.1538
vn -0.9813 -0.1193 -0.1509
vn -0.9527 -0.2486 0.1747
vn -0.0259 -0.9996 0.0084
vn -0.0259 -0.9995 -0.0188
vn -0.0307 -0.9994 -0.0173
vn -0.0307 -0.9995 0.0118
vn -0.0206 -0.9997 0.0150
vn -0.0206 -0.9998 -0.0067
vn 0.0336 -0.9984 0.0463
vn 0.0756 -0.9971 0.0010
vn 0.0011 -1.0000 0.0015
vn 0.0011 -1.0000 -0.0015
vn 0.0818 -0.9963 0.0253
s 0
usemtl Rock
f 1//1 14//1 13//1
f 2//2 14//2 16//2
f 1//3 13//3 18//3
f 1//3 18//3 20//3
f 1//3 20//3 17//3
f 2//4 16//4 23//4
f 3//5 15//5 25//5
f 4//6 19//6 27//6
f 5//7 21//7 29//7
f 6//8 22//8 31//8
f 2//9 23//9 26//9
f 3//10 25//10 28//10
f 4//11 27//11 30//11
f 5//12 29//12 32//12
f 6//13 31//13 24//13
f 7//14 33//14 38//14
f 8//15 34//15 40//15
f 9//16 35//16 41//16
f 10//17 36//17 42//17
f 11//18 37//18 39//18
f 39//19 42//19 12//19
f 39//20 37//20 42//20
f 37//21 10//21 42//21
f 42//22 41//22 12//22
f 42//23 36//23 41//23
f 36//24 9//24 41//24
f 41//25 40//25 12//25
f 41//26 35//26 40//26
f 35//27 8//27 40//27
f 40//28 38//28 12//28
f 40//29 34//29 38//29
f 34//30 7//30 38//30
f 38//31 39//31 12//31
f 38//32 33//32 39//32
f 33//33 11//33 39//33
f 24//34 37//34 11//34
f 24//35 31//35 37//35
f 31//36 10//36 37//36
f 32//37 36//37 10//37
f 32//38 29//38 36//38
f 29//39 9//39 36//39
f 30//40 35//40 9//40
f 30//41 27//41 35//41
f 27//42 8//42 35//42
f 28//43 34//43 8//43
f 28//44 25//44 34//44
f 25//45 7//45 34//45
f 26//46 33//46 7//46
f 26//47 23//47 33//47
f 23//48 11//48 33//48
f 31//49 32//49 10//49
f 31//50 22//50 32//50
f 22//51 5//51 32//51
f 29//52 30//52 9//52
f 29//53 21//53 30//53
f 21//54 4//54 30//54
f 27//55 28//55 8//55
f 27//56 19//56 28//56
f 19//57 3//57 28//57
f 25//58 26//58 7//58
f 25//59 15//59 26//59
f 15//60 2//60 26//60
f 23//61 24//61 11//61
f 23//62 16//62 24//62
f 16//63 6//63 24//63
f 17//3 22//3 6//3
f 17//3 20//3 22//3
f 20//3 5//3 22//3
f 20//64 21//64 5//64
f 20//65 18//65 21//65
f 18//66 4//66 21//66
f 18//67 19//67 4//67
f 18//68 13//68 19//68
f 13//69 3//69 19//69
f 16//70 17//70 6//70
f 16//71 14//71 17//71
f 14//72 1//72 17//72
f 13//3 15//3 3//3
f 13//73 14//73 15//73
f 14//74 2//74 15//74
