# Blender 3.4.0
# www.blender.org
mtllib tiny-rock-vertical.mtl
o Icosphere.031
v 0.080597 0.103948 0.103662
v 0.482470 -0.062593 0.276068
v -0.081826 -0.055772 0.485128
v -0.500136 -0.005755 -0.001658
v -0.147181 -0.005749 -0.487449
v 0.423900 -0.005750 -0.301891
v 0.291191 0.234696 0.477802
v -0.331215 0.322598 0.406046
v -0.402580 0.495349 -0.301891
v 0.335974 0.662533 -0.485897
v 0.578411 0.542245 0.049844
v 0.130541 1.209306 -0.142106
v 0.201495 0.815117 0.261911
v 0.035569 0.376167 0.400078
v -0.106463 1.005929 -0.056905
v -0.364022 0.512533 0.080605
v 0.574737 0.636732 -0.238605
v 0.498360 0.857788 -0.197837
v 0.466651 0.913374 -0.033713
v 0.307451 0.919856 0.057578
vn -0.1746 -0.8795 -0.4426
vn -0.3621 -0.9305 -0.0548
vn 0.2284 -0.9289 -0.2917
vn 0.1635 -0.9794 0.1188
vn -0.0673 -0.9760 0.2071
vn 0.9730 -0.1985 -0.1181
vn 0.3166 -0.3847 0.8671
vn -0.7265 -0.3560 0.5877
vn -0.7941 -0.1911 -0.5770
vn 0.3017 -0.2160 -0.9286
vn 0.7914 0.1000 0.6030
vn -0.0127 0.1965 0.9804
vn -0.9669 0.2402 0.0867
vn -0.2800 0.2046 -0.9379
vn 0.7108 -0.0983 -0.6965
vn 0.6397 0.3529 0.6829
vn -0.3637 0.6015 0.7113
vn -0.6710 0.5989 -0.4371
vn -0.3079 0.4208 -0.8533
vn 0.9493 0.3040 0.0804
vn -0.0299 0.3104 0.9501
vn 0.6654 0.4655 0.5836
vn -0.1007 0.3331 0.9375
vn -0.8767 0.4763 0.0670
vn -0.3113 0.6523 0.6911
vn -0.7747 0.5090 0.3751
vn -0.9513 0.2147 0.2212
vn -0.1626 0.2330 0.9588
vn 0.9719 -0.2199 -0.0844
vn 0.4636 0.5899 -0.6612
vn 0.6908 0.3549 -0.6300
vn 0.9464 0.3104 0.0896
vn 0.3887 0.6722 0.6301
vn 0.6771 0.7268 -0.1153
vn 0.4800 0.3278 0.8138
vn 0.4516 0.6770 0.5812
vt 0.643956 0.928905
vt 0.640535 0.920687
vt 0.053940 0.935187
vt 0.442227 0.901649
vt 0.651349 0.924808
vt 0.496982 0.877844
vt 0.043021 0.939021
vt 0.651349 0.936928
vt 0.214925 0.860527
vt 0.485368 0.878205
vt 0.640190 0.939255
vt 0.205440 0.862014
vt 0.634140 0.929661
vt 0.197575 0.867457
vt 0.432446 0.896188
vt 0.448330 0.896780
vt 0.051386 0.942585
vt 0.041016 0.945537
vt 0.494474 0.882982
vt 0.214410 0.868916
vt 0.481856 0.889007
vt 0.202102 0.877464
vt 0.433546 0.883532
vt 0.441530 0.891204
vt 0.866044 0.766106
vt 0.211785 0.886061
vt 0.490154 0.904218
vt 0.443763 0.875577
vt 0.053940 0.950773
vt 0.496982 0.895917
vt 0.448330 0.885283
vt 0.047919 0.945150
vt 0.214925 0.880860
vt 0.489440 0.898628
vt 0.488898 0.887650
vt 0.436961 0.887634
vt 0.439311 0.883779
vt 0.442699 0.883794
vt 0.863566 0.760742
vt 0.866044 0.758277
vt 0.444938 0.883037
s 0
usemtl Rock.001
f 1/1/1 2/2/1 3/5/1
f 2/2/2 1/1/2 6/13/2
f 1/1/3 3/5/3 4/8/3
f 1/1/4 4/8/4 5/11/4
f 1/1/5 5/11/5 6/13/5
f 2/4/6 6/15/6 11/24/6
f 3/7/7 2/3/7 7/17/7
f 4/10/8 3/6/8 8/19/8
f 5/12/9 4/9/9 9/20/9
f 6/14/10 5/12/10 10/22/10
f 2/4/11 11/24/11 7/16/11
f 3/7/12 14/32/12 8/18/12
f 4/10/13 16/35/13 9/21/13
f 5/12/14 9/20/14 10/22/14
f 6/15/15 10/23/15 17/36/15
f 7/16/16 11/24/16 13/31/16
f 8/19/17 13/30/17 15/34/17
f 9/20/18 15/33/18 12/26/18
f 10/22/19 9/20/19 12/26/19
f 11/24/20 18/37/20 19/38/20
f 13/29/21 8/18/21 14/32/21
f 13/31/22 11/24/22 20/41/22
f 14/32/23 7/17/23 13/29/23
f 15/34/24 9/21/24 16/35/24
f 15/34/25 13/30/25 12/27/25
f 16/35/26 8/19/26 15/34/26
f 16/35/27 4/10/27 8/19/27
f 14/32/28 3/7/28 7/17/28
f 17/36/29 11/24/29 6/15/29
f 12/28/30 18/37/30 10/23/30
f 10/23/31 18/37/31 17/36/31
f 18/37/32 11/24/32 17/36/32
f 19/38/33 12/28/33 20/41/33
f 19/38/34 18/37/34 12/28/34
f 20/40/35 11/25/35 19/39/35
f 20/41/36 12/28/36 13/31/36
