# Blender 5.0.1
# www.blender.org
mtllib tree.mtl
o Cylinder
v -0.005440 1.050557 -0.939428
v 0.019167 5.087034 0.022684
v 0.637348 1.050557 -0.705472
v 0.028745 5.087034 0.026170
v 0.979368 0.856480 -0.113076
v 0.033842 5.087034 0.034997
v 0.860586 0.856480 0.560572
v 0.032072 5.087034 0.045035
v 0.336580 1.050557 1.000265
v 0.024263 5.087034 0.051587
v -0.353069 0.987231 0.994068
v 0.014070 5.087034 0.051587
v -0.871465 0.856480 0.560572
v 0.006262 5.087034 0.045035
v -0.990247 0.856480 -0.113076
v 0.004492 5.087034 0.034997
v -0.653837 0.793153 -0.711668
v 0.009589 5.087034 0.026170
v -0.002290 1.406613 -0.816288
v 0.559453 1.406613 -0.611830
v 0.858351 1.406613 -0.094124
v 0.754545 1.406613 0.494589
v 0.296607 1.406613 0.878845
v -0.306797 1.343287 0.872648
v -0.759126 1.406613 0.494589
v -0.862932 1.406613 -0.094124
v -0.569643 1.343287 -0.618026
v 0.015024 4.376458 -0.139296
v 0.131209 4.376458 -0.097008
v 0.193029 4.376458 0.010068
v 0.171559 4.376458 0.131830
v 0.076845 4.376458 0.211305
v -0.052405 4.313131 0.205109
v -0.141511 4.376458 0.131830
v -0.162981 4.376458 0.010068
v -0.106769 4.313131 -0.103204
v 0.242392 3.605409 -0.230669
v 0.365764 3.605409 -0.016983
v 0.322917 3.605409 0.226012
v 0.133901 3.605409 0.384616
v -0.118452 3.542083 0.378420
v -0.301860 3.605409 0.226012
v -0.344706 3.605409 -0.016983
v -0.226943 3.542082 -0.236866
v 0.010529 3.605409 -0.315061
v 0.365054 2.754761 -0.378129
v 0.556331 2.754761 -0.046827
v 0.489901 2.754761 0.329917
v 0.196847 2.754761 0.575818
v -0.191317 2.691434 0.569622
v -0.478762 2.754761 0.329916
v -0.545192 2.754761 -0.046827
v -0.359524 2.691434 -0.384325
v 0.005569 2.754761 -0.508971
v 0.474390 1.996519 -0.509570
v 0.726197 1.996518 -0.073428
v 0.638746 1.996519 0.422534
v 0.252955 1.996519 0.746250
v -0.256267 1.933192 0.740054
v -0.636448 1.996519 0.422534
v -0.723899 1.996518 -0.073428
v -0.477702 1.933192 -0.515766
v 0.001149 1.996518 -0.681816
v 0.015674 4.326367 -0.253986
v 0.199847 4.326368 -0.186952
v 0.292234 4.263041 -0.023413
v 0.263809 4.326367 0.175798
v 0.113670 4.326367 0.301780
v -0.087932 4.263041 0.295584
v -0.232462 4.326367 0.175798
v -0.266496 4.326367 -0.017217
v -0.174109 4.263041 -0.193148
v 0.010725 3.552862 -0.451635
v 0.324917 3.552862 -0.337279
v 0.486486 3.489535 -0.053915
v 0.434034 3.552862 0.281558
v 0.177903 3.552862 0.496478
v -0.162062 3.489536 0.490282
v -0.412585 3.552862 0.281558
v -0.470645 3.552862 -0.047718
v -0.309076 3.489535 -0.343475
v 0.005286 2.702699 -0.671042
v 0.463775 2.702699 -0.504165
v 0.702124 2.639372 -0.087815
v 0.623007 2.702699 0.398883
v 0.249243 2.702699 0.712509
v -0.244281 2.639373 0.706312
v -0.612436 2.702699 0.398883
v -0.697161 2.702699 -0.081619
v -0.458813 2.639373 -0.510362
v 0.000399 1.938844 -0.831178
v 0.564756 1.938845 -0.625769
v 0.859436 1.875518 -0.111850
v 0.760756 1.938844 0.485799
v 0.300687 1.938845 0.871843
v -0.305499 1.875518 0.865646
v -0.759959 1.938845 0.485799
v -0.864248 1.938844 -0.105654
v -0.569569 1.875518 -0.631965
v 0.669916 1.347060 -0.752068
v 1.022565 1.283733 -0.137744
v 0.903752 1.347060 0.574081
v 0.354870 1.347060 1.034648
v -0.367254 1.283733 1.028452
v -0.910528 1.347060 0.574081
v -1.034949 1.347059 -0.131548
v -0.682301 1.283733 -0.758265
v -0.003388 1.347059 -0.997131
v 0.747414 0.805147 -0.845319
v 1.143143 0.741821 -0.156378
v 1.009368 0.805147 0.640300
v 0.394483 0.805147 1.156250
v -0.413802 0.741821 1.150053
v -1.023078 0.805147 0.640299
v -1.162461 0.805147 -0.150182
v -0.766733 0.741821 -0.851516
v -0.006855 0.805147 -1.119851
v -0.018886 -0.035607 -0.373037
v -0.018886 1.139839 -0.373037
v 0.231064 -0.035607 -0.282063
v 0.231064 1.139839 -0.282063
v 0.364060 -0.035607 -0.051708
v 0.364060 1.139839 -0.051708
v 0.317871 -0.035607 0.210242
v 0.317871 1.139839 0.210242
v 0.114110 -0.035607 0.381218
v 0.114110 1.139839 0.381218
v -0.151881 -0.035607 0.381218
v -0.151881 1.139839 0.381218
v -0.355642 -0.035607 0.210242
v -0.355642 1.139839 0.210242
v -0.401831 -0.035607 -0.051708
v -0.401831 1.139839 -0.051708
v -0.268836 -0.035607 -0.282063
v -0.268836 1.139839 -0.282063
v -0.018886 0.545610 -0.264436
v 0.161257 0.545610 -0.198870
v 0.257109 0.545610 -0.032850
v 0.223820 0.545610 0.155942
v 0.076966 0.545610 0.279167
v -0.114738 0.545610 0.279166
v -0.261591 0.545610 0.155942
v -0.294880 0.545610 -0.032850
v -0.199028 0.545610 -0.198870
vn 0.3238 0.3221 -0.8896
vn 0.8730 0.3022 -0.3827
vn 0.9536 0.2971 0.0477
vn 0.6109 0.3112 0.7280
vn -0.1164 0.2965 0.9479
vn -0.5313 0.3015 0.7917
vn -0.9327 0.3210 0.1645
vn -0.0000 1.0000 -0.0000
vn -0.3809 0.3169 -0.8686
vn -0.7898 0.3166 -0.5253
vn 0.0415 -0.9991 0.0024
vn -0.7667 0.4310 -0.4757
vn -0.3356 0.4304 -0.8379
vn -0.8898 0.4285 0.1569
vn -0.5511 0.4230 0.7193
vn -0.0455 0.4187 0.9070
vn 0.5844 0.4163 0.6965
vn 0.9079 0.3960 0.1376
vn 0.8023 0.4025 -0.4408
vn 0.3093 0.4266 -0.8499
vn -0.7838 0.3370 -0.5217
vn -0.3783 0.3367 -0.8623
vn -0.9279 0.3351 0.1636
vn -0.5277 0.3288 0.7832
vn -0.1127 0.3256 0.9388
vn 0.6078 0.3254 0.7244
vn 0.9437 0.3122 0.1093
vn 0.8444 0.3173 -0.4317
vn 0.3224 0.3342 -0.8857
vn 0.3209 0.3458 -0.8817
vn 0.8325 0.3304 -0.4447
vn 0.9366 0.3260 0.1283
vn 0.6047 0.3390 0.7207
vn -0.0735 0.3409 0.9372
vn -0.5534 0.3441 0.7585
vn -0.9230 0.3487 0.1627
vn -0.3579 0.3490 -0.8661
vn -0.7906 0.3500 -0.5024
vn -0.7957 0.3507 -0.4939
vn -0.3486 0.3496 -0.8696
vn -0.9228 0.3491 0.1627
vn -0.5664 0.3446 0.7487
vn -0.0551 0.3408 0.9385
vn 0.6048 0.3385 0.7208
vn 0.9359 0.3243 0.1375
vn 0.8290 0.3293 -0.4520
vn 0.3209 0.3461 -0.8816
vn 0.3114 0.4133 -0.8557
vn 0.8077 0.3910 -0.4412
vn 0.9129 0.3849 0.1357
vn 0.5881 0.4035 0.7009
vn -0.0509 0.4056 0.9126
vn -0.5513 0.4096 0.7268
vn -0.8960 0.4150 0.1580
vn -0.3404 0.4168 -0.8429
vn -0.7708 0.4174 -0.4812
vn 0.1824 -0.8628 0.4715
vn 0.4346 -0.8567 0.2778
vn 0.4511 -0.8889 -0.0795
vn 0.0338 -0.8164 -0.5765
vn 0.3326 -0.8240 -0.4586
vn -0.3049 -0.8804 -0.3633
vn -0.6502 -0.7582 0.0485
vn -0.6189 -0.7661 0.1734
vn -0.1439 -0.9072 0.3954
vn -0.1295 -0.9255 0.3559
vn -0.5359 -0.8196 0.2028
vn -0.5873 -0.8093 -0.0082
vn -0.2691 -0.9081 -0.3207
vn 0.1984 -0.8870 -0.4170
vn 0.1156 -0.8858 -0.4495
vn 0.3987 -0.9144 -0.0703
vn 0.3033 -0.9077 0.2901
vn 0.2296 -0.9091 0.3477
vn 0.2137 -0.9379 0.2733
vn 0.2322 -0.9377 0.2586
vn 0.3356 -0.9401 -0.0592
vn 0.1208 -0.9255 -0.3590
vn 0.1379 -0.9257 -0.3523
vn -0.2263 -0.9360 -0.2697
vn -0.5129 -0.8581 -0.0235
vn -0.4618 -0.8659 0.1920
vn -0.1107 -0.9462 0.3041
vn -0.1302 -0.9247 0.3577
vn -0.5031 -0.8320 0.2339
vn -0.5695 -0.8205 -0.0494
vn -0.2660 -0.9104 -0.3170
vn 0.1072 -0.9038 -0.4144
vn 0.1839 -0.9047 -0.3844
vn 0.3927 -0.9170 -0.0692
vn 0.2232 -0.9201 0.3218
vn 0.2799 -0.9193 0.2765
vn 0.2434 -0.9398 0.2401
vn 0.1938 -0.9402 0.2801
vn 0.3381 -0.9392 -0.0596
vn 0.1572 -0.9309 -0.3297
vn 0.0922 -0.9303 -0.3550
vn -0.2282 -0.9348 -0.2720
vn -0.4989 -0.8656 -0.0432
vn -0.4422 -0.8730 0.2057
vn -0.1133 -0.9435 0.3114
vn -0.2817 -0.5673 0.7738
vn -0.6966 -0.6658 0.2673
vn -0.4648 -0.8844 -0.0418
vn -0.5116 -0.7239 -0.4627
vn 0.0523 -0.5359 -0.8427
vn 0.4635 -0.7303 -0.5019
vn 0.2956 -0.9539 -0.0521
vn 0.3663 -0.7441 0.5587
vn 0.2118 -0.9540 0.2122
vn 0.3371 -0.1693 -0.9261
vn 0.8535 -0.1693 -0.4928
vn 0.9706 -0.1693 0.1711
vn 0.6335 -0.1693 0.7550
vn -0.0000 -0.1693 0.9856
vn -0.6335 -0.1693 0.7550
vn -0.9706 -0.1693 0.1711
vn -0.3371 -0.1693 -0.9261
vn -0.8535 -0.1693 -0.4928
vn -0.0000 -1.0000 -0.0000
vn -0.8530 0.1729 -0.4925
vn -0.3369 0.1729 -0.9255
vn -0.9700 0.1729 0.1710
vn -0.6331 0.1729 0.7545
vn -0.0000 0.1729 0.9849
vn 0.6331 0.1729 0.7545
vn 0.9700 0.1729 0.1710
vn 0.8530 0.1729 -0.4925
vn 0.3369 0.1729 -0.9255
s 1
g Cylinder_Leaves
usemtl Leaves
f 64//1 2//1 4//1 65//1
f 65//2 4//2 6//2 66//2
f 66//3 6//3 8//3 67//3
f 67//4 8//4 10//4 68//4
f 68//5 10//5 12//5 69//5
f 69//6 12//6 14//6 70//6
f 70//7 14//7 16//7 71//7
f 4//8 2//8 18//8 16//8 14//8 12//8 10//8 8//8 6//8
f 72//9 18//9 2//9 64//9
f 71//10 16//10 18//10 72//10
f 1//11 3//11 5//11 7//11 9//11 11//11 13//11 15//11 17//11
f 115//12 26//12 27//12 116//12
f 116//13 27//13 19//13 117//13
f 114//14 25//14 26//14 115//14
f 113//15 24//15 25//15 114//15
f 112//16 23//16 24//16 113//16
f 111//17 22//17 23//17 112//17
f 110//18 21//18 22//18 111//18
f 109//19 20//19 21//19 110//19
f 117//20 19//20 20//20 109//20
f 80//21 35//21 36//21 81//21
f 81//22 36//22 28//22 73//22
f 79//23 34//23 35//23 80//23
f 78//24 33//24 34//24 79//24
f 77//25 32//25 33//25 78//25
f 76//26 31//26 32//26 77//26
f 75//27 30//27 31//27 76//27
f 74//28 29//28 30//28 75//28
f 73//29 28//29 29//29 74//29
f 82//30 45//30 37//30 83//30
f 83//31 37//31 38//31 84//31
f 84//32 38//32 39//32 85//32
f 85//33 39//33 40//33 86//33
f 86//34 40//34 41//34 87//34
f 87//35 41//35 42//35 88//35
f 88//36 42//36 43//36 89//36
f 90//37 44//37 45//37 82//37
f 89//38 43//38 44//38 90//38
f 98//39 52//39 53//39 99//39
f 99//40 53//40 54//40 91//40
f 97//41 51//41 52//41 98//41
f 96//42 50//42 51//42 97//42
f 95//43 49//43 50//43 96//43
f 94//44 48//44 49//44 95//44
f 93//45 47//45 48//45 94//45
f 92//46 46//46 47//46 93//46
f 91//47 54//47 46//47 92//47
f 108//48 63//48 55//48 100//48
f 100//49 55//49 56//49 101//49
f 101//50 56//50 57//50 102//50
f 102//51 57//51 58//51 103//51
f 103//52 58//52 59//52 104//52
f 104//53 59//53 60//53 105//53
f 105//54 60//54 61//54 106//54
f 107//55 62//55 63//55 108//55
f 106//56 61//56 62//56 107//56
f 35//57 71//57 72//57 36//57
f 36//58 72//58 64//58 28//58
f 34//59 70//59 71//59 35//59
f 33//60 69//60 70//60 34//60
f 32//61 68//61 69//61 33//61
f 31//62 67//62 68//62 32//62
f 30//63 66//63 67//63 31//63
f 29//64 65//64 66//64 30//64
f 28//65 64//65 65//65 29//65
f 45//66 73//66 74//66 37//66
f 37//67 74//67 75//67 38//67
f 38//68 75//68 76//68 39//68
f 39//69 76//69 77//69 40//69
f 40//70 77//70 78//70 41//70
f 41//71 78//71 79//71 42//71
f 42//72 79//72 80//72 43//72
f 44//73 81//73 73//73 45//73
f 43//74 80//74 81//74 44//74
f 52//75 89//75 90//75 53//75
f 53//76 90//76 82//76 54//76
f 51//77 88//77 89//77 52//77
f 50//78 87//78 88//78 51//78
f 49//79 86//79 87//79 50//79
f 48//80 85//80 86//80 49//80
f 47//81 84//81 85//81 48//81
f 46//82 83//82 84//82 47//82
f 54//83 82//83 83//83 46//83
f 63//84 91//84 92//84 55//84
f 55//85 92//85 93//85 56//85
f 56//86 93//86 94//86 57//86
f 57//87 94//87 95//87 58//87
f 58//88 95//88 96//88 59//88
f 59//89 96//89 97//89 60//89
f 60//90 97//90 98//90 61//90
f 62//91 99//91 91//91 63//91
f 61//92 98//92 99//92 62//92
f 26//93 106//93 107//93 27//93
f 27//94 107//94 108//94 19//94
f 25//95 105//95 106//95 26//95
f 24//96 104//96 105//96 25//96
f 23//97 103//97 104//97 24//97
f 22//98 102//98 103//98 23//98
f 21//99 101//99 102//99 22//99
f 20//100 100//100 101//100 21//100
f 19//101 108//101 100//101 20//101
f 1//102 117//102 109//102 3//102
f 3//103 109//103 110//103 5//103
f 5//104 110//104 111//104 7//104
f 7//105 111//105 112//105 9//105
f 9//106 112//106 113//106 11//106
f 11//107 113//107 114//107 13//107
f 13//108 114//108 115//108 15//108
f 17//109 116//109 117//109 1//109
f 15//110 115//110 116//110 17//110
g Cylinder_Bark
usemtl Bark
f 136//111 119//111 121//111 137//111
f 137//112 121//112 123//112 138//112
f 138//113 123//113 125//113 139//113
f 139//114 125//114 127//114 140//114
f 140//115 127//115 129//115 141//115
f 141//116 129//116 131//116 142//116
f 142//117 131//117 133//117 143//117
f 121//8 119//8 135//8 133//8 131//8 129//8 127//8 125//8 123//8
f 144//118 135//118 119//118 136//118
f 143//119 133//119 135//119 144//119
f 118//120 120//120 122//120 124//120 126//120 128//120 130//120 132//120 134//120
f 132//121 143//121 144//121 134//121
f 134//122 144//122 136//122 118//122
f 130//123 142//123 143//123 132//123
f 128//124 141//124 142//124 130//124
f 126//125 140//125 141//125 128//125
f 124//126 139//126 140//126 126//126
f 122//127 138//127 139//127 124//127
f 120//128 137//128 138//128 122//128
f 118//129 136//129 137//129 120//129
